<svg xmlns="http://www.w3.org/2000/svg" xmlns:xlink="http://www.w3.org/1999/xlink" id="Ebene_1" x="0px" y="0px" viewBox="0 0 600 150" style="enable-background:new 0 0 600 150;" xml:space="preserve">
<style type="text/css">
	.st0{fill:#FAFAFA;}
</style>
<g>
	<g>
		<g>
			<path class="st0" d="M245.9,13.4v31c0,14.7-9.2,22-21.5,22c-12.3,0-21.5-7.3-21.5-22v-31h10.8v30.4c0,9.1,4.5,12.4,10.7,12.4     c6.3,0,10.7-3.3,10.7-12.4V13.4H245.9z"></path>
			<path class="st0" d="M292.3,39.8v25.7h-10.6V42.1c0-5.4-2-8.3-7.7-8.3c-6,0-9.2,3.5-9.2,10.2v21.5h-10.6V24.6h10.6v5.6     c3-4.2,7.1-6.5,12.7-6.5C286.8,23.7,292.3,29.8,292.3,39.8z"></path>
			<path class="st0" d="M298.2,45c0-12.1,9-21.4,21.4-21.4c10,0,18.8,6,20.4,16.5H329c-1.3-4.5-5.1-6.6-9.5-6.6     c-6.5,0-10.6,4.8-10.6,11.5c-0.1,6.8,4.2,11.5,10.5,11.5c4.4,0,8.3-2.2,9.5-6.7H340c-1.6,10.8-10.6,16.5-20.5,16.5     C307.2,66.4,298.2,57.2,298.2,45z"></path>
			<path class="st0" d="M384,39.8v25.7h-10.6V42.1c0-5.4-2.1-8.3-7.7-8.3c-6,0-9.2,3.5-9.2,10.2v21.5h-10.6V8.2h10.6v22     c3-4.2,7.1-6.5,12.7-6.5C378.4,23.7,384,29.8,384,39.8z"></path>
			<path class="st0" d="M432.1,24.6L432,65.5h-10.6V60c-2.8,3.9-7.1,6.4-12.8,6.4c-10.7,0-18.7-8.8-18.7-21.4     c0-12.7,8.1-21.4,18.6-21.4c5.8,0,10.1,2.7,13,6.6v-5.7H432.1z M421.4,45c0-6.7-4.5-11.2-10.5-11.2c-6,0-10.3,4.5-10.3,11.2     c0,6.8,4.5,11.2,10.3,11.2C416.9,56.3,421.4,51.8,421.4,45z"></path>
			<path class="st0" d="M451.3,13.1c0,3.6-2.8,6.3-6.6,6.3c-3.7,0-6.6-2.7-6.6-6.3c0-3.6,2.9-6.3,6.6-6.3     C448.5,6.8,451.3,9.4,451.3,13.1z M439.3,24.6H450v40.9h-10.6V24.6z"></path>
			<path class="st0" d="M495.4,39.8v25.7h-10.6V42.1c0-5.4-2-8.3-7.7-8.3c-6,0-9.2,3.5-9.2,10.2v21.5h-10.6V24.6h10.6v5.6     c3-4.2,7.1-6.5,12.7-6.5C489.9,23.7,495.4,29.8,495.4,39.8z"></path>
			<path class="st0" d="M543.6,47.8h-31.4c0.7,6.6,5.1,9.8,10.6,9.8c4.1,0,7.7-1.9,9.1-5.1h11c-3.1,9.7-11.2,13.9-20,13.9     c-12.8,0-21.6-9.1-21.6-21.3c0-12.3,8.9-21.4,21.4-21.4C536.2,23.7,544.6,34.3,543.6,47.8z M512.7,40h19.6     c-1.2-4.5-4.5-7.5-9.7-7.5C517.4,32.5,514.1,35.6,512.7,40z"></path>
			<path class="st0" d="M591.4,8.2v57.3h-10.6V60c-2.8,3.9-7.1,6.4-12.9,6.4c-10.6,0-18.7-8.8-18.7-21.4c0-12.7,8.1-21.4,18.6-21.4     c5.8,0,10.1,2.7,13,6.6V8.2H591.4z M580.8,45c0-6.7-4.5-11.2-10.5-11.2c-6,0-10.3,4.5-10.3,11.2c0,6.8,4.5,11.2,10.3,11.2     C576.2,56.3,580.8,51.8,580.8,45z"></path>
			<path class="st0" d="M219.4,118.5h-5.9v18.8h-10.6V85.1h22.4c11.2,0,17.8,6.6,17.8,17c0,8.5-4.4,13.7-11.7,15.6l14.6,19.6h-13.1     L219.4,118.5z M213.5,109.2h10.6c5.6,0,8.2-2.7,8.2-6.9c0-4.3-2.7-7-8.2-7h-10.6V109.2z"></path>
			<path class="st0" d="M289.9,116.8c0,12.4-9.4,21.4-21.4,21.4c-11.9,0-21.3-9.1-21.3-21.4c0-12.4,9.5-21.4,21.3-21.4     C280.4,95.4,289.9,104.4,289.9,116.8z M257.9,116.8c0,6.8,4.6,11.2,10.6,11.2c6,0,10.6-4.5,10.6-11.2c0-6.7-4.6-11.2-10.6-11.2     C262.6,105.5,257.9,110.1,257.9,116.8z"></path>
			<path class="st0" d="M338.3,116.8c0,12.6-8,21.4-18.7,21.4c-5.8,0-10-2.5-13-6.4v5.5h-10.6V79.9h10.6V102c2.8-3.9,7.2-6.6,13-6.6     C330.2,95.4,338.3,104.1,338.3,116.8z M327.6,116.8c0-6.7-4.4-11.2-10.3-11.2c-6,0-10.5,4.5-10.5,11.2c0,6.8,4.5,11.2,10.5,11.2     C323.1,128,327.6,123.5,327.6,116.8z"></path>
			<path class="st0" d="M386.2,116.8c0,12.4-9.4,21.4-21.4,21.4c-11.9,0-21.3-9.1-21.3-21.4c0-12.4,9.5-21.4,21.3-21.4     C376.7,95.4,386.2,104.4,386.2,116.8z M354.3,116.8c0,6.8,4.6,11.2,10.6,11.2c6,0,10.6-4.5,10.6-11.2c0-6.7-4.6-11.2-10.6-11.2     C358.9,105.5,354.3,110.1,354.3,116.8z"></path>
			<path class="st0" d="M423.7,134.8c-2.2,1.5-7.3,3.3-12.2,3.3c-8.2,0-15.3-4.9-15.3-16.7v-15.1h-7.3v-10h7.3v-8.9l10.6-2.3v11.2     H422v10h-15.2v14.5c0,4.8,2.3,7.4,6.6,7.4c2.4,0,5.2-0.8,8.6-2L423.7,134.8z"></path>
			<path class="st0" d="M441.4,84.8c0,3.6-2.8,6.3-6.6,6.3c-3.7,0-6.6-2.7-6.6-6.3c0-3.6,2.9-6.3,6.6-6.3     C438.6,78.5,441.4,81.1,441.4,84.8z M429.4,96.3H440v40.9h-10.6V96.3z"></path>
			<path class="st0" d="M446.4,116.8c0-12.1,9-21.4,21.4-21.4c10,0,18.8,6,20.4,16.5h-10.9c-1.3-4.5-5.1-6.6-9.5-6.6     c-6.5,0-10.6,4.8-10.6,11.5c-0.1,6.8,4.2,11.5,10.5,11.5c4.4,0,8.3-2.2,9.5-6.7h10.9c-1.6,10.8-10.6,16.5-20.5,16.5     C455.4,138.1,446.4,128.9,446.4,116.8z"></path>
			<path class="st0" d="M492.2,123.8H503c0.8,3.3,3.3,5.5,9.9,5.5c4.7,0,6.9-1.1,6.9-3.3c0-2.8-3.2-3-9.4-4.5     c-11.6-2.8-16.4-5.4-16.4-12.4c0-8.6,7.1-13.6,17.9-13.6c11.4,0,17,5.5,18.4,13.1h-10.8c-0.8-2.6-3.1-4.2-8-4.2     c-4.2,0-6.8,1.2-6.8,3.4c0,1.9,1.9,2.3,7.8,3.6c11.7,2.7,18.2,4.9,18.2,13.1c0,9.2-8.1,13.6-18.2,13.6     C501.6,138.1,493.7,132.8,492.2,123.8z"></path>
		</g>
	</g>
	<g>
		<circle class="st0" cx="35.3" cy="33.6" r="25.5"></circle>
		<path class="st0" d="M144,116.9c0-5.9-2-11.4-5.4-15.7c-0.5-0.6-0.9-1.2-1.3-1.8c-4.4-7-6.9-15.3-6.9-24.1    c0-8.9,2.5-17.2,6.9-24.2c0.4-0.6,0.8-1.2,1.2-1.8c0.9-1.1,1.7-2.3,2.3-3.6c2-3.7,3.1-7.9,3.1-12.3c-0.1-14.1-11.5-25.3-25.5-25.3    c-10.5,0-19.4,6.4-23.3,15.4l0,0c0,0,0,0,0,0c-0.3,0.8-0.6,1.6-0.9,2.4c-2.8,7.4-12.1,29.9-24.4,42.2    C57.6,80.5,35.2,89.7,27.8,92.5c-0.8,0.3-1.7,0.6-2.5,0.9c0,0,0,0,0,0l0,0c-9.1,3.9-15.4,12.9-15.4,23.4    c0,14.1,11.4,25.5,25.5,25.5c11.6,0,21.4-7.7,24.4-18.3c3-7.8,12.1-29.6,24.2-41.7c5.9-5.9,14.2-11.1,22-15.3    c0.5,2.7,0.7,5.4,0.7,8.2c0,8.9-2.5,17.1-6.9,24.1c-0.4,0.6-0.8,1.2-1.3,1.8c-3.4,4.3-5.4,9.8-5.4,15.7    c0,14.1,11.4,25.5,25.5,25.5C132.6,142.3,144,130.9,144,116.9z"></path>
	</g>
</g>
</svg>